<?xml version="1.0" encoding="utf-8"?><!DOCTYPE svg PUBLIC "-//W3C//DTD SVG 1.1//EN" "http://www.w3.org/Graphics/SVG/1.1/DTD/svg11.dtd"><svg xmlns="http://www.w3.org/2000/svg" xmlns:xlink="http://www.w3.org/1999/xlink"><symbol viewBox="0 0 29.9 34.8" enable-background="new 0 0 29.9 34.8" id="android"><g opacity=".44" fill-rule="evenodd" clip-rule="evenodd" fill="#fff"><path d="M9.3.1l1.8 2.6c1.1-.4 2.4-.7 3.8-.7s2.8.3 4 .8L20.8.1c.1-.1.2-.1.4-.1.1.1.1.2.1.3l-1.8 2.6c2.6 1.3 4.5 3.8 4.9 6.6H5.5c.4-2.7 2.3-5.2 5.1-6.5L8.8.5c-.1-.1 0-.3.1-.3.1-.2.3-.2.4-.1zM19 5c.6 0 1 .4 1 .9s-.4.9-.9.9-.9-.4-.9-.9c-.1-.5.3-.9.8-.9zm-8.1 0c.5 0 .9.4.9.9s-.4.9-.9.9-.9-.4-.9-.9.4-.9.9-.9zM1.9 11h.4c1 0 1.9 1.1 1.9 2.4v7.7c0 1.3-.8 2.4-1.9 2.4h-.4c-1 0-1.9-1.1-1.9-2.4v-7.7C0 12.1.8 11 1.9 11zM27.7 11.1h.4c1 0 1.9 1.1 1.9 2.4v7.7c0 1.3-.8 2.4-1.9 2.4h-.4c-1 0-1.9-1.1-1.9-2.4v-7.7c0-1.3.8-2.4 1.9-2.4zM13.3 28v4.3c0 1.3-.8 2.4-1.9 2.4H11c-1 0-1.9-1.1-1.9-2.4V28H7.4c-1.1 0-1.9-.9-1.9-1.9V10.9h19v15.2c0 1.1-.9 1.9-1.9 1.9H21v4.4c0 1.3-.8 2.4-1.9 2.4h-.4c-1 0-1.9-1.1-1.9-2.4V28h-3.5z"/></g></symbol><symbol viewBox="0 0 35 35.5" enable-background="new 0 0 35 35.5" id="wp"><g opacity=".44" fill="#fff"><path d="M14.7 17.1V2.8L0 4.9v12.2zM15.9 17.1H35V0L15.9 2.7zM14.7 18.4H0v12.2l14.7 2.1zM15.9 18.4v14.4L35 35.5V18.4z"/></g></symbol></svg>