<?xml version="1.0" encoding="utf-8"?>
<!-- Generator: Adobe Illustrator 18.0.0, SVG Export Plug-In . SVG Version: 6.00 Build 0)  -->
<!DOCTYPE svg PUBLIC "-//W3C//DTD SVG 1.1//EN" "http://www.w3.org/Graphics/SVG/1.1/DTD/svg11.dtd">
<svg version="1.1" id="图层_1" xmlns="http://www.w3.org/2000/svg" xmlns:xlink="http://www.w3.org/1999/xlink" x="0px" y="0px"
	 viewBox="0 0 29.9 34.8" enable-background="new 0 0 29.9 34.8" xml:space="preserve">
<g opacity="0.44">
	<path fill-rule="evenodd" clip-rule="evenodd" fill="#FFFFFF" d="M9.3,0.1l1.8,2.6C12.2,2.3,13.5,2,14.9,2c1.4,0,2.8,0.3,4,0.8
		l1.9-2.7C20.9,0,21,0,21.2,0l0,0c0.1,0.1,0.1,0.2,0.1,0.3l-1.8,2.6c2.6,1.3,4.5,3.8,4.9,6.6H5.5C5.9,6.8,7.8,4.3,10.6,3L8.8,0.5
		c-0.1-0.1,0-0.3,0.1-0.3l0,0C9,0,9.2,0,9.3,0.1L9.3,0.1z M19,5C19.6,5,20,5.4,20,5.9c0,0.5-0.4,0.9-0.9,0.9c-0.5,0-0.9-0.4-0.9-0.9
		C18.1,5.4,18.5,5,19,5L19,5z M10.9,5c0.5,0,0.9,0.4,0.9,0.9c0,0.5-0.4,0.9-0.9,0.9c-0.5,0-0.9-0.4-0.9-0.9C10,5.4,10.4,5,10.9,5
		L10.9,5z"/>
	<path fill-rule="evenodd" clip-rule="evenodd" fill="#FFFFFF" d="M1.9,11h0.4c1,0,1.9,1.1,1.9,2.4v7.7c0,1.3-0.8,2.4-1.9,2.4H1.9
		c-1,0-1.9-1.1-1.9-2.4v-7.7C0,12.1,0.8,11,1.9,11L1.9,11z"/>
	<path fill-rule="evenodd" clip-rule="evenodd" fill="#FFFFFF" d="M27.7,11.1h0.4c1,0,1.9,1.1,1.9,2.4v7.7c0,1.3-0.8,2.4-1.9,2.4
		h-0.4c-1,0-1.9-1.1-1.9-2.4v-7.7C25.8,12.2,26.6,11.1,27.7,11.1L27.7,11.1z"/>
	<path fill-rule="evenodd" clip-rule="evenodd" fill="#FFFFFF" d="M13.3,28v4.3c0,1.3-0.8,2.4-1.9,2.4H11c-1,0-1.9-1.1-1.9-2.4V28
		H7.4c-1.1,0-1.9-0.9-1.9-1.9V10.9h19v15.2c0,1.1-0.9,1.9-1.9,1.9H21v4.4c0,1.3-0.8,2.4-1.9,2.4h-0.4c-1,0-1.9-1.1-1.9-2.4V28H13.3
		L13.3,28z"/>
</g>
</svg>
