<?xml version="1.0" encoding="utf-8"?>
<!-- Generator: Adobe Illustrator 18.0.0, SVG Export Plug-In . SVG Version: 6.00 Build 0)  -->
<!DOCTYPE svg PUBLIC "-//W3C//DTD SVG 1.1//EN" "http://www.w3.org/Graphics/SVG/1.1/DTD/svg11.dtd">
<svg version="1.1" id="ios" xmlns="http://www.w3.org/2000/svg" xmlns:xlink="http://www.w3.org/1999/xlink" x="0px" y="0px"
	 viewBox="0 0 59.2 68.8" enable-background="new 0 0 59.2 68.8" xml:space="preserve">
<path fill-rule="evenodd" clip-rule="evenodd" d="M59.2,50.5c-1.6,3.6-2.4,5.2-4.5,8.3
	c-2.9,4.4-7,9.9-12.1,10c-4.5,0-5.7-2.9-11.8-2.9c-6.1,0-7.4,2.9-11.9,2.9c-5.1,0-9-5-11.9-9.4c-8.1-12.4-9-26.9-4-34.6
	c3.6-5.5,9.2-8.7,14.5-8.7c5.4,0,8.8,2.9,13.2,2.9c4.3,0,6.9-3,13.2-3c4.7,0,9.7,2.6,13.2,7C45.5,29.5,47.4,46.1,59.2,50.5
	L59.2,50.5z"/>
<path fill-rule="evenodd" clip-rule="evenodd" d="M39.2,11.2c2.3-2.9,4-7,3.4-11.2
	c-3.7,0.3-8,2.6-10.5,5.7c-2.3,2.8-4.2,6.9-3.4,10.9C32.6,16.7,36.8,14.3,39.2,11.2L39.2,11.2z"/>
</svg>
